<svg width="1080" height="1080" viewBox="0 0 1080 1080" fill="none" xmlns="http://www.w3.org/2000/svg">
<rect width="1080" height="1080" fill="white"/>
<path d="M286.928 496.48V492.48L288.368 492.32C292.101 491.787 295.141 491.04 297.488 490.08C299.941 489.12 302.021 487.573 303.728 485.44C305.541 483.2 307.248 480.16 308.848 476.32L347.568 382.4H353.008L390.768 476.32C392.901 481.547 395.195 485.387 397.648 487.84C400.101 490.293 403.461 491.733 407.728 492.16L410.928 492.48V496.48L391.088 496L365.488 496.48V492.48L368.688 492.16C372.421 491.733 375.088 490.933 376.688 489.76C378.288 488.587 379.088 486.933 379.088 484.8C379.088 482.667 378.341 479.787 376.848 476.16L368.528 455.36H323.408L314.768 476.16C314.021 478.08 313.381 479.84 312.848 481.44C312.315 482.933 312.048 484.267 312.048 485.44C312.048 487.467 312.901 489.013 314.608 490.08C316.421 491.147 319.355 491.84 323.408 492.16L326.608 492.48V496.48L306.288 496L286.928 496.48ZM325.488 450.24H366.608L346.448 399.52L325.488 450.24ZM465.181 497.76C451.847 497.76 441.501 494.827 434.141 488.96C426.781 483.093 423.101 473.547 423.101 460.32V403.68C423.101 398.347 422.727 394.56 421.981 392.32C421.234 390.08 419.847 388.64 417.821 388C415.901 387.253 413.074 386.667 409.341 386.24L406.141 385.92V381.92L429.821 382.4H429.981L453.661 381.92V385.92L450.461 386.24C446.834 386.667 444.007 387.253 441.981 388C439.954 388.64 438.567 390.08 437.821 392.32C437.074 394.56 436.701 398.347 436.701 403.68V460.32C436.701 471.093 439.634 479.147 445.501 484.48C451.367 489.813 458.941 492.48 468.221 492.48C478.994 492.48 486.781 489.547 491.581 483.68C496.381 477.707 498.781 469.6 498.781 459.36V403.68C498.781 398.347 498.407 394.56 497.661 392.32C496.914 390.08 495.527 388.64 493.501 388C491.581 387.253 488.754 386.667 485.021 386.24L481.821 385.92V381.92L505.501 382.24L521.341 381.92V385.92L518.141 386.24C514.514 386.667 511.687 387.253 509.661 388C507.634 388.64 506.247 390.08 505.501 392.32C504.754 394.56 504.381 398.347 504.381 403.68V459.36C504.381 471.733 501.127 481.227 494.621 487.84C488.114 494.453 478.301 497.76 465.181 497.76ZM619.261 497.76C613.394 497.76 609.021 495.787 606.141 491.84C603.367 487.787 601.554 482.827 600.701 476.96C600.167 472.693 599.314 468.427 598.141 464.16C597.074 459.893 595.314 456 592.861 452.48C590.514 448.853 587.154 445.973 582.781 443.84C578.514 441.707 572.914 440.64 565.981 440.64H559.101V474.72C559.101 479.947 559.474 483.733 560.221 486.08C560.967 488.32 562.354 489.813 564.381 490.56C566.407 491.2 569.234 491.733 572.861 492.16L576.061 492.48V496.48L552.381 496H552.221L528.541 496.48V492.48L531.741 492.16C535.474 491.733 538.301 491.2 540.221 490.56C542.247 489.813 543.634 488.32 544.381 486.08C545.127 483.733 545.501 479.947 545.501 474.72V403.68C545.501 398.347 545.127 394.56 544.381 392.32C543.634 390.08 542.247 388.64 540.221 388C538.301 387.253 535.474 386.667 531.741 386.24L528.541 385.92V381.92L552.221 382.4H574.621C581.874 382.4 588.594 383.253 594.781 384.96C600.967 386.56 605.927 389.387 609.661 393.44C613.501 397.493 615.421 403.147 615.421 410.4C615.421 416.8 613.981 422.027 611.101 426.08C608.327 430.027 604.594 433.067 599.901 435.2C595.314 437.227 590.301 438.667 584.861 439.52C592.754 440.053 599.154 442.773 604.061 447.68C609.074 452.48 612.274 459.573 613.661 468.96C614.621 474.933 615.794 479.627 617.181 483.04C618.674 486.347 620.274 488.693 621.981 490.08C623.794 491.36 625.607 492 627.421 492C628.594 492 629.714 491.787 630.781 491.36C631.954 490.933 632.967 490.507 633.821 490.08L634.941 494.08C633.234 494.933 630.941 495.733 628.061 496.48C625.181 497.333 622.247 497.76 619.261 497.76ZM574.941 386.56H559.101V436.32H572.541C582.781 436.32 589.927 434.24 593.981 430.08C598.141 425.92 600.221 419.68 600.221 411.36C600.221 403.467 598.354 397.387 594.621 393.12C590.887 388.747 584.327 386.56 574.941 386.56ZM630.991 496.48V492.48L632.431 492.32C636.164 491.787 639.204 491.04 641.551 490.08C644.004 489.12 646.084 487.573 647.791 485.44C649.604 483.2 651.311 480.16 652.911 476.32L691.631 382.4H697.071L734.831 476.32C736.964 481.547 739.257 485.387 741.711 487.84C744.164 490.293 747.524 491.733 751.791 492.16L754.991 492.48V496.48L735.151 496L709.551 496.48V492.48L712.751 492.16C716.484 491.733 719.151 490.933 720.751 489.76C722.351 488.587 723.151 486.933 723.151 484.8C723.151 482.667 722.404 479.787 720.911 476.16L712.591 455.36H667.471L658.831 476.16C658.084 478.08 657.444 479.84 656.911 481.44C656.377 482.933 656.111 484.267 656.111 485.44C656.111 487.467 656.964 489.013 658.671 490.08C660.484 491.147 663.417 491.84 667.471 492.16L670.671 492.48V496.48L650.351 496L630.991 496.48ZM669.551 450.24H710.671L690.511 399.52L669.551 450.24ZM135.65 703.48V699.48L138.85 699.16C142.583 698.733 145.41 698.2 147.33 697.56C149.357 696.813 150.743 695.32 151.49 693.08C152.237 690.733 152.61 686.947 152.61 681.72V610.68C152.61 605.347 152.237 601.56 151.49 599.32C150.743 597.08 149.357 595.64 147.33 595C145.41 594.253 142.583 593.667 138.85 593.24L135.65 592.92V588.92L159.33 589.4H159.49L183.17 588.92V592.92L179.97 593.24C176.343 593.667 173.517 594.253 171.49 595C169.463 595.64 168.077 597.08 167.33 599.32C166.583 601.56 166.21 605.347 166.21 610.68V641.56H227.17V610.68C227.17 605.347 226.797 601.56 226.05 599.32C225.303 597.08 223.917 595.64 221.89 595C219.97 594.253 217.143 593.667 213.41 593.24L210.21 592.92V588.92L233.89 589.4H234.05L257.73 588.92V592.92L254.53 593.24C250.903 593.667 248.077 594.253 246.05 595C244.023 595.64 242.637 597.08 241.89 599.32C241.143 601.56 240.77 605.347 240.77 610.68V681.72C240.77 686.947 241.143 690.733 241.89 693.08C242.637 695.32 244.023 696.813 246.05 697.56C248.077 698.2 250.903 698.733 254.53 699.16L257.73 699.48V703.48L234.05 703H233.89L210.21 703.48V699.48L213.41 699.16C217.143 698.733 219.97 698.2 221.89 697.56C223.917 696.813 225.303 695.32 226.05 693.08C226.797 690.733 227.17 686.947 227.17 681.72V646.68H166.21V681.72C166.21 686.947 166.583 690.733 167.33 693.08C168.077 695.32 169.463 696.813 171.49 697.56C173.517 698.2 176.343 698.733 179.97 699.16L183.17 699.48V703.48L159.49 703H159.33L135.65 703.48ZM270.494 703.48V699.48L273.694 699.16C277.427 698.733 280.254 698.2 282.174 697.56C284.2 696.813 285.587 695.32 286.334 693.08C287.08 690.733 287.454 686.947 287.454 681.72V610.68C287.454 605.347 287.08 601.56 286.334 599.32C285.587 597.08 284.2 595.64 282.174 595C280.254 594.253 277.427 593.667 273.694 593.24L270.494 592.92V588.92L294.174 589.4H294.334L318.014 588.92V592.92L314.814 593.24C311.187 593.667 308.36 594.253 306.334 595C304.307 595.64 302.92 597.08 302.174 599.32C301.427 601.56 301.054 605.347 301.054 610.68V681.72C301.054 686.947 301.427 690.733 302.174 693.08C302.92 695.32 304.307 696.813 306.334 697.56C308.36 698.2 311.187 698.733 314.814 699.16L318.014 699.48V703.48L294.334 703H294.174L270.494 703.48ZM373.846 704.76C369.58 704.76 365.686 704.067 362.166 702.68C358.753 701.293 355.66 699.907 352.886 698.52C350.54 697.24 348.566 696.28 346.966 695.64C345.473 695 344.14 694.68 342.966 694.68C341.473 694.68 340.406 695.32 339.766 696.6C339.233 697.773 338.806 699.107 338.486 700.6L338.006 703H334.006L334.806 684.12L334.326 663.48H338.326L340.086 671C341.26 675.693 343.34 680.28 346.326 684.76C349.42 689.24 353.26 692.92 357.846 695.8C362.54 698.68 367.873 700.12 373.846 700.12C377.153 700.12 380.3 699.427 383.286 698.04C386.38 696.547 388.886 694.307 390.806 691.32C392.833 688.333 393.846 684.44 393.846 679.64C393.846 672.493 391.5 666.733 386.806 662.36C382.22 657.987 375.82 653.827 367.606 649.88L360.886 646.68C352.886 642.84 346.913 638.627 342.966 634.04C339.126 629.347 337.206 623.373 337.206 616.12C337.206 610.467 338.593 605.453 341.366 601.08C344.14 596.707 347.926 593.293 352.726 590.84C357.633 588.387 363.233 587.16 369.526 587.16C373.9 587.16 377.58 587.747 380.566 588.92C383.553 590.093 385.9 591.107 387.606 591.96C390.38 593.347 392.566 594.04 394.166 594.04C395.873 594.04 396.886 592.387 397.206 589.08H401.206L400.726 604.44L401.046 619.96H397.046C396.406 613.987 394.753 608.92 392.086 604.76C389.42 600.493 386.166 597.24 382.326 595C378.593 592.76 374.593 591.64 370.326 591.64C364.033 591.64 358.913 593.453 354.966 597.08C351.126 600.707 349.206 605.347 349.206 611C349.206 617.08 351.18 621.88 355.126 625.4C359.073 628.813 364.193 632.067 370.486 635.16L377.046 638.36C382.913 641.24 387.926 644.227 392.086 647.32C396.353 650.307 399.606 653.827 401.846 657.88C404.193 661.933 405.366 667 405.366 673.08C405.366 679.373 403.926 684.92 401.046 689.72C398.273 694.52 394.486 698.253 389.686 700.92C384.993 703.48 379.713 704.76 373.846 704.76ZM447.054 703.48V699.48L450.574 699.16C454.947 698.733 458.254 698.2 460.494 697.56C462.84 696.813 464.44 695.32 465.294 693.08C466.254 690.733 466.734 686.947 466.734 681.72V593.72H444.174C439.267 593.72 435.374 594.68 432.494 596.6C429.72 598.413 427.267 601.4 425.134 605.56C423.107 609.72 420.707 615.267 417.934 622.2L414.574 621.4L418.574 601.72L420.334 588.92L465.934 589.4H481.134L526.894 588.92L528.654 601.72L532.654 621.4L529.134 622.36C526.68 616.173 524.387 610.947 522.254 606.68C520.227 602.413 517.827 599.213 515.054 597.08C512.28 594.84 508.6 593.72 504.014 593.72H480.334V681.72C480.334 686.947 480.76 690.733 481.614 693.08C482.574 695.32 484.227 696.813 486.574 697.56C488.92 698.2 492.227 698.733 496.494 699.16L500.014 699.48V703.48L473.934 703L447.054 703.48ZM598.596 704.76C590.596 704.76 583.183 703.32 576.356 700.44C569.636 697.56 563.77 693.507 558.756 688.28C553.85 683.053 550.01 676.867 547.236 669.72C544.463 662.467 543.076 654.52 543.076 645.88C543.076 637.24 544.463 629.347 547.236 622.2C550.01 615.053 553.85 608.867 558.756 603.64C563.77 598.413 569.636 594.36 576.356 591.48C583.183 588.6 590.596 587.16 598.596 587.16C606.596 587.16 613.956 588.6 620.676 591.48C627.503 594.36 633.37 598.413 638.276 603.64C643.29 608.867 647.183 615.053 649.956 622.2C652.73 629.347 654.116 637.24 654.116 645.88C654.116 654.52 652.73 662.467 649.956 669.72C647.183 676.867 643.29 683.053 638.276 688.28C633.37 693.507 627.503 697.56 620.676 700.44C613.956 703.32 606.596 704.76 598.596 704.76ZM598.596 699.96C607.876 699.96 615.396 697.773 621.156 693.4C626.916 689.027 631.13 682.84 633.796 674.84C636.463 666.733 637.796 657.08 637.796 645.88C637.796 634.68 636.463 625.08 633.796 617.08C631.13 608.973 626.916 602.787 621.156 598.52C615.396 594.147 607.876 591.96 598.596 591.96C589.423 591.96 581.903 594.147 576.036 598.52C570.276 602.787 566.063 608.973 563.396 617.08C560.73 625.08 559.396 634.68 559.396 645.88C559.396 657.08 560.73 666.733 563.396 674.84C566.063 682.84 570.276 689.027 576.036 693.4C581.903 697.773 589.423 699.96 598.596 699.96ZM758.089 704.76C752.222 704.76 747.849 702.787 744.969 698.84C742.195 694.787 740.382 689.827 739.529 683.96C738.995 679.693 738.142 675.427 736.969 671.16C735.902 666.893 734.142 663 731.689 659.48C729.342 655.853 725.982 652.973 721.609 650.84C717.342 648.707 711.742 647.64 704.809 647.64H697.929V681.72C697.929 686.947 698.302 690.733 699.049 693.08C699.795 695.32 701.182 696.813 703.209 697.56C705.235 698.2 708.062 698.733 711.689 699.16L714.889 699.48V703.48L691.209 703H691.049L667.369 703.48V699.48L670.569 699.16C674.302 698.733 677.129 698.2 679.049 697.56C681.075 696.813 682.462 695.32 683.209 693.08C683.955 690.733 684.329 686.947 684.329 681.72V610.68C684.329 605.347 683.955 601.56 683.209 599.32C682.462 597.08 681.075 595.64 679.049 595C677.129 594.253 674.302 593.667 670.569 593.24L667.369 592.92V588.92L691.049 589.4H713.449C720.702 589.4 727.422 590.253 733.609 591.96C739.795 593.56 744.755 596.387 748.489 600.44C752.329 604.493 754.249 610.147 754.249 617.4C754.249 623.8 752.809 629.027 749.929 633.08C747.155 637.027 743.422 640.067 738.729 642.2C734.142 644.227 729.129 645.667 723.689 646.52C731.582 647.053 737.982 649.773 742.889 654.68C747.902 659.48 751.102 666.573 752.489 675.96C753.449 681.933 754.622 686.627 756.009 690.04C757.502 693.347 759.102 695.693 760.809 697.08C762.622 698.36 764.435 699 766.249 699C767.422 699 768.542 698.787 769.609 698.36C770.782 697.933 771.795 697.507 772.649 697.08L773.769 701.08C772.062 701.933 769.769 702.733 766.889 703.48C764.009 704.333 761.075 704.76 758.089 704.76ZM713.769 593.56H697.929V643.32H711.369C721.609 643.32 728.755 641.24 732.809 637.08C736.969 632.92 739.049 626.68 739.049 618.36C739.049 610.467 737.182 604.387 733.449 600.12C729.715 595.747 723.155 593.56 713.769 593.56ZM778.619 703.48V699.48L781.819 699.16C785.552 698.733 788.379 698.2 790.299 697.56C792.325 696.813 793.712 695.32 794.459 693.08C795.205 690.733 795.579 686.947 795.579 681.72V610.68C795.579 605.347 795.205 601.56 794.459 599.32C793.712 597.08 792.325 595.64 790.299 595C788.379 594.253 785.552 593.667 781.819 593.24L778.619 592.92V588.92L802.299 589.4H802.459L826.139 588.92V592.92L822.939 593.24C819.312 593.667 816.485 594.253 814.459 595C812.432 595.64 811.045 597.08 810.299 599.32C809.552 601.56 809.179 605.347 809.179 610.68V681.72C809.179 686.947 809.552 690.733 810.299 693.08C811.045 695.32 812.432 696.813 814.459 697.56C816.485 698.2 819.312 698.733 822.939 699.16L826.139 699.48V703.48L802.459 703H802.299L778.619 703.48ZM830.131 703.48V699.48L831.571 699.32C835.305 698.787 838.345 698.04 840.691 697.08C843.145 696.12 845.225 694.573 846.931 692.44C848.745 690.2 850.451 687.16 852.051 683.32L890.771 589.4H896.211L933.971 683.32C936.105 688.547 938.398 692.387 940.851 694.84C943.305 697.293 946.665 698.733 950.931 699.16L954.131 699.48V703.48L934.291 703L908.691 703.48V699.48L911.891 699.16C915.625 698.733 918.291 697.933 919.891 696.76C921.491 695.587 922.291 693.933 922.291 691.8C922.291 689.667 921.545 686.787 920.051 683.16L911.731 662.36H866.611L857.971 683.16C857.225 685.08 856.585 686.84 856.051 688.44C855.518 689.933 855.251 691.267 855.251 692.44C855.251 694.467 856.105 696.013 857.811 697.08C859.625 698.147 862.558 698.84 866.611 699.16L869.811 699.48V703.48L849.491 703L830.131 703.48ZM868.691 657.24H909.811L889.651 606.52L868.691 657.24Z" fill="black"/>
<path d="M215.996 541.615H865.996" stroke="black" stroke-width="3"/>
<path d="M624.784 719.068L623.441 708.532L630.342 704.958L639.256 712.478L638.911 721.298L633.027 723.905L624.784 719.068Z" stroke="black" stroke-width="6"/>
<path d="M654.764 738.812L654.819 738.872L670.468 755.1L657.795 763.033L633.732 724.097L638.893 721.428L654.764 738.812Z" fill="black" stroke="black" stroke-width="6"/>
</svg>
